<?xml version="1.0" standalone="no"?>
<!DOCTYPE svg PUBLIC "-//W3C//DTD SVG 20010904//EN"
 "http://www.w3.org/TR/2001/REC-SVG-20010904/DTD/svg10.dtd">
<svg version="1.0" xmlns="http://www.w3.org/2000/svg"
 width="980.000000pt" height="500.000000pt" viewBox="0 0 980.000000 500.000000"
 preserveAspectRatio="xMidYMid meet">
<g transform="translate(0.000000,500.000000) scale(0.100000,-0.100000)"
fill="#F33A21" stroke="none">
<path d="M1362 4648 c134 -272 238 -567 278 -788 38 -215 75 -521 95 -804 l6
-89 -198 6 c-228 7 -504 37 -678 73 -157 33 -361 102 -504 170 -63 30 -116 54
-117 54 -2 0 -4 -272 -4 -605 0 -333 2 -605 4 -605 2 0 39 18 82 40 259 133
667 200 1215 200 102 0 188 -2 190 -4 7 -7 -9 -310 -26 -496 -54 -586 -126
-860 -341 -1290 -51 -102 -109 -211 -128 -242 l-35 -58 457 0 457 0 -3 2280
-2 2280 -404 0 -404 0 60 -122z"/>
<path d="M2932 4757 c-29 -34 -175 -368 -234 -532 -91 -253 -156 -649 -193
-1167 l-6 -88 68 0 c175 0 566 37 744 71 188 34 453 120 587 188 23 12 46 21
52 21 7 0 10 -187 10 -585 0 -396 -3 -585 -10 -585 -6 0 -32 11 -58 24 -107
54 -298 111 -470 141 -176 30 -858 70 -903 53 -26 -10 7 -500 56 -843 53 -367
125 -594 299 -947 35 -69 85 -165 112 -212 l49 -86 3288 0 3287 0 0 2280 0
2280 -3334 0 c-2718 0 -3336 -2 -3344 -13z m1639 -1476 c30 -10 77 -32 105
-50 65 -39 90 -40 112 -1 36 63 42 41 42 -150 0 -152 -2 -180 -15 -180 -8 0
-17 12 -20 28 -28 135 -73 228 -134 271 -129 92 -296 91 -386 -3 -47 -49 -65
-99 -65 -186 0 -134 52 -173 299 -220 230 -45 308 -85 358 -188 25 -52 28 -67
28 -167 0 -91 -4 -121 -23 -172 -59 -154 -189 -231 -371 -221 -71 4 -105 13
-190 47 -57 23 -111 39 -121 36 -9 -3 -21 -19 -26 -36 -21 -71 -29 -23 -32
186 -2 187 0 215 13 215 8 0 15 -6 15 -12 1 -58 26 -162 50 -214 67 -140 223
-214 385 -184 152 29 228 137 212 297 -8 73 -43 126 -105 156 -49 25 -90 36
-235 62 -176 32 -262 80 -305 173 -25 52 -27 68 -27 177 0 104 3 127 23 170
38 82 115 149 202 176 48 14 155 9 211 -10z m1444 -187 c0 -152 -2 -179 -15
-179 -12 0 -16 19 -22 87 -7 101 -33 159 -85 194 -40 27 -133 44 -236 44 l-77
0 0 -570 0 -570 91 0 c80 0 90 -2 87 -17 -3 -15 -26 -17 -268 -16 -214 1 -265
4 -265 15 0 10 23 14 88 16 l87 3 0 571 0 571 -112 -6 c-217 -11 -269 -55
-286 -242 -5 -61 -11 -80 -22 -80 -13 0 -15 27 -18 170 -1 93 -1 174 1 180 3
7 175 10 528 9 l524 -1 0 -179z m315 176 c0 -5 -16 -10 -35 -10 l-35 0 0 -260
0 -260 35 0 c19 0 35 -4 35 -10 0 -6 -43 -10 -109 -10 -63 0 -112 4 -116 10
-4 6 10 10 34 10 l41 0 0 260 0 260 -40 0 c-22 0 -40 5 -40 10 0 6 45 10 115
10 70 0 115 -4 115 -10z m444 -36 c8 -63 8 -94 -2 -94 -5 0 -13 16 -18 37 -15
60 -50 77 -160 81 l-94 4 0 -121 0 -121 52 0 c60 0 88 19 88 61 0 15 5 31 10
34 6 4 10 -33 10 -104 0 -67 -4 -111 -10 -111 -5 0 -10 13 -10 29 0 40 -24 61
-70 61 -21 0 -45 3 -54 6 -14 5 -16 -10 -16 -125 l0 -131 40 0 c22 0 40 -4 40
-10 0 -13 -227 -13 -235 -1 -3 6 11 11 30 13 l36 3 2 258 2 257 -32 0 c-17 0
-35 5 -38 10 -4 7 68 10 208 10 l214 0 7 -46z m516 -39 c0 -92 -13 -113 -24
-37 -4 26 -13 55 -20 65 -16 21 -67 37 -118 37 l-38 0 0 -260 0 -260 40 0 c22
0 40 -4 40 -10 0 -6 -48 -10 -125 -10 -77 0 -125 4 -125 10 0 6 18 10 40 10
l40 0 0 260 0 260 -37 0 c-72 0 -113 -18 -129 -55 -8 -19 -14 -48 -14 -65 0
-16 -4 -30 -10 -30 -6 0 -10 35 -10 85 l0 85 245 0 245 0 0 -85z m108 -591
c201 -100 200 -436 -1 -533 -49 -24 -130 -28 -174 -9 -56 24 -111 78 -140 136
-24 49 -28 69 -28 142 0 72 4 92 27 135 72 138 196 189 316 129z m1228 -171
c37 -109 80 -232 95 -273 l27 -75 58 0 59 0 3 258 2 257 -35 0 c-19 0 -35 5
-35 10 0 6 35 10 84 10 l83 0 144 -199 144 -198 3 176 c1 96 0 181 -2 188 -3
7 -21 13 -41 13 -22 0 -34 4 -30 10 3 6 44 10 91 10 49 0 84 -4 84 -10 0 -5
-11 -10 -24 -10 -58 0 -56 11 -56 -282 0 -164 -4 -267 -9 -263 -9 5 -323 437
-352 483 -8 12 -17 22 -20 22 -11 0 -11 -438 1 -460 7 -13 21 -20 40 -20 17 0
30 -4 30 -10 0 -6 -72 -10 -195 -10 -123 0 -195 4 -195 10 0 6 16 10 36 10 25
0 35 4 32 13 -3 6 -15 43 -27 80 l-23 68 -81 -3 -80 -3 -23 -69 c-13 -38 -21
-73 -18 -77 3 -5 21 -9 40 -9 19 0 34 -4 34 -9 0 -11 -444 -20 -494 -11 -44 8
-64 45 -76 135 -6 44 -16 90 -22 102 -12 24 -62 43 -110 43 l-28 0 0 -130 0
-130 40 0 c22 0 40 -4 40 -10 0 -6 -47 -10 -120 -10 -73 0 -120 4 -120 10 0 6
16 10 35 10 l35 0 0 260 0 260 -35 0 c-19 0 -35 5 -35 11 0 19 318 7 355 -13
47 -25 67 -53 72 -101 8 -72 -17 -106 -102 -138 l-30 -11 35 -11 c50 -17 77
-64 85 -145 5 -65 24 -120 38 -114 4 1 32 2 62 2 l55 0 0 260 0 260 -41 0
c-24 0 -38 4 -34 10 4 6 53 10 116 10 66 0 109 -4 109 -10 0 -5 -16 -10 -35
-10 l-35 0 0 -260 0 -260 64 0 65 0 19 53 c11 28 52 152 93 275 41 122 77 222
80 222 4 0 37 -89 75 -197z m-2122 175 c3 -7 7 -39 10 -70 7 -67 -8 -78 -24
-18 -16 59 -45 73 -156 78 l-94 4 0 -127 0 -128 52 5 c57 6 88 32 88 74 0 13
5 24 10 24 6 0 10 -42 10 -105 0 -63 -4 -105 -10 -105 -5 0 -10 11 -10 25 0
41 -33 65 -90 65 l-50 0 0 -125 0 -125 35 0 c19 0 35 -4 35 -10 0 -6 -45 -10
-115 -10 -70 0 -115 4 -115 10 0 6 16 10 35 10 l35 0 0 260 0 260 -35 0 c-19
0 -35 5 -35 10 0 16 420 13 424 -2z m276 2 c0 -5 -18 -10 -40 -10 l-40 0 0
-260 0 -260 88 0 c152 0 187 21 199 119 10 83 23 58 23 -44 l0 -95 -235 0
c-150 0 -235 4 -235 10 0 6 16 10 35 10 l35 0 0 260 0 260 -41 0 c-24 0 -38 4
-34 10 4 6 57 10 126 10 73 0 119 -4 119 -10z"/>
<path d="M7232 2590 c-20 -13 -42 -39 -55 -68 -19 -41 -22 -64 -22 -187 0
-125 2 -144 22 -182 33 -61 66 -83 126 -83 45 0 54 4 87 39 46 49 60 100 61
230 0 110 -10 162 -44 212 -41 61 -113 77 -175 39z"/>
<path d="M7740 2480 l0 -120 44 0 c62 0 104 18 121 51 18 34 19 95 2 129 -16
33 -72 60 -124 60 l-43 0 0 -120z"/>
<path d="M8482 2377 c-17 -57 -32 -107 -32 -110 0 -4 32 -7 71 -7 53 0 70 3
67 13 -3 6 -20 56 -37 110 -18 53 -33 97 -34 97 -1 0 -17 -47 -35 -103z"/>
</g>
</svg>
