<?xml version="1.0" encoding="utf-8"?>
<!-- Generator: Adobe Illustrator 18.0.0, SVG Export Plug-In . SVG Version: 6.00 Build 0)  -->
<!DOCTYPE svg PUBLIC "-//W3C//DTD SVG 1.1//EN" "http://www.w3.org/Graphics/SVG/1.1/DTD/svg11.dtd">
<svg version="1.1" xmlns="http://www.w3.org/2000/svg" xmlns:xlink="http://www.w3.org/1999/xlink" x="0px" y="0px"
	 viewBox="0 0 16 16" enable-background="new 0 0 16 16" xml:space="preserve">
<g id="Layer_2">
	<rect x="0" y="0" fill="#ED813A" width="16" height="16"/>
</g>
<g id="Layer_1">
	<g>
		<path d="M11.4,8.5c-0.1-0.5-0.2-0.8-0.3-1.1c-0.1-0.2-0.3-0.5-0.6-0.9l0.7-0.7l-0.5-0.4L10.2,6c-0.4-0.3-0.7-0.5-1-0.6
			c-0.2-0.1-0.6-0.2-1-0.2l0-1l-0.6,0l0,1C7,5.3,6.7,5.4,6.4,5.5C6.2,5.6,5.9,5.8,5.5,6.1L4.8,5.3L4.4,5.8l0.7,0.7
			C4.8,6.9,4.6,7.2,4.5,7.4C4.4,7.6,4.3,8,4.3,8.5l-1,0l0,0.6l1,0c0,0.3,0.1,0.6,0.2,0.8c0.1,0,0.1,0,0.2,0c0.1,0,0.1,0,0.2,0
			c0.1,0,0.1,0,0.1,0c0.1,0,0.2,0,0.2,0C5,9.6,4.9,9.2,4.9,8.8c0-0.8,0.3-1.5,0.9-2.1C6.3,6.1,7,5.8,7.8,5.8c0.8,0,1.6,0.3,2.1,0.9
			c0.6,0.6,0.9,1.3,0.9,2.1c0,0.3-0.1,0.6-0.2,0.9c0,0.1,0.5,0.1,0.7,0.1c0-0.2,0.1-0.4,0.1-0.7l1,0l0-0.6H11.4z"/>
	</g>
	<g>
		<polygon points="4.9,2.7 6.3,6.1 6.9,5.8 5.5,2.4 		"/>
	</g>
	<g>
		<polygon points="10.2,2.4 8.8,5.9 9.4,6.1 10.8,2.7 		"/>
	</g>
	<g>
		<polygon points="1.4,6.4 4.8,7.9 5,7.3 1.6,5.8 		"/>
	</g>
	<g>
		<polygon points="14,5.8 10.6,7.3 10.9,7.9 14.3,6.4 		"/>
	</g>
	<rect x="-4" y="-2.5" fill="none" width="23.5" height="23.5"/>
	<path fill="none" stroke="#000000" stroke-width="0.5" stroke-miterlimit="10" d="M-0.9,10.9c5.1-1.9,17.5-1.5,20.2,0"/>
</g>
</svg>
